<svg xmlns="http://www.w3.org/2000/svg" width="17" height="17" viewBox="0 0 17 17">
    <g fill="#FFF" fill-rule="evenodd">
        <path d="M15.627 12.407a3.224 3.224 0 0 1-3.22 3.22H4.593a3.224 3.224 0 0 1-3.22-3.22V4.593a3.224 3.224 0 0 1 3.22-3.22h7.814a3.224 3.224 0 0 1 3.22 3.22v7.814zM12.407 0H4.593A4.599 4.599 0 0 0 0 4.593v7.814A4.599 4.599 0 0 0 4.593 17h7.814A4.599 4.599 0 0 0 17 12.407V4.593A4.599 4.599 0 0 0 12.407 0z"/>
        <path d="M9.08 10.682a2.415 2.415 0 0 1-1.805-.452 2.416 2.416 0 0 1-.957-1.597 2.417 2.417 0 0 1 .452-1.806 2.416 2.416 0 0 1 1.954-.983A2.418 2.418 0 0 1 11.13 7.92a2.435 2.435 0 0 1-2.05 2.762m3.404-2.964a3.776 3.776 0 0 0-1.072-2.13 3.799 3.799 0 0 0-5.742.423 3.778 3.778 0 0 0-.707 2.823 3.778 3.778 0 0 0 1.496 2.496 3.773 3.773 0 0 0 2.822.707 3.777 3.777 0 0 0 2.496-1.496 3.777 3.777 0 0 0 .707-2.823M13.225 3.775a.676.676 0 0 0-.475-.196.675.675 0 0 0-.475 1.146.676.676 0 0 0 .475.196c.177 0 .35-.072.475-.196a.676.676 0 0 0 .196-.475.676.676 0 0 0-.196-.475"/>
    </g>
</svg>
