<svg xmlns="http://www.w3.org/2000/svg" xmlns:xlink="http://www.w3.org/1999/xlink" width="18" height="15" viewBox="0 0 18 15">
    <defs>
        <path id="a" d="M0 0h18v14.087H0z"/>
    </defs>
    <g fill="none" fill-rule="evenodd">
        <mask id="b" fill="#fff">
            <use xlink:href="#a"/>
        </mask>
        <path fill="#FFF" d="M16.714 1.86v.11c0 .394-.155.833-.467 1.317-.311.483-.648.868-1.01 1.155a1520.03 1520.03 0 0 0-4.027 3.172c-.04.033-.158.131-.352.295-.194.163-.348.288-.462.375a9.31 9.31 0 0 1-.447.315 2.682 2.682 0 0 1-.507.275c-.154.06-.298.09-.432.09h-.02c-.134 0-.278-.03-.432-.09a2.679 2.679 0 0 1-.507-.275 9.325 9.325 0 0 1-.447-.315 12.793 12.793 0 0 1-.462-.375 98.424 98.424 0 0 0-.352-.295c-1.393-1.1-2.735-2.158-4.028-3.172-.984-.774-1.476-1.72-1.476-2.841 0-.087.032-.162.095-.225a.31.31 0 0 1 .226-.095h14.786c.053.03.1.038.14.025.04-.014.07.011.09.075.021.063.04.093.056.09.017-.004.027.038.03.125l.005.13v.135zm0 10.626a.307.307 0 0 1-.095.225.31.31 0 0 1-.226.095H1.607a.309.309 0 0 1-.226-.095.307.307 0 0 1-.095-.225V4.802c.214.24.445.46.693.66a140.534 140.534 0 0 1 4.279 3.382c.341.287.62.51.834.67.214.16.503.322.868.486.365.163.708.245 1.03.245h.02c.321 0 .665-.082 1.03-.245.365-.164.654-.325.869-.485.214-.16.492-.384.833-.67 1.058-.881 2.484-2.008 4.28-3.382.247-.2.478-.42.692-.66v7.683zM17.528.47A1.55 1.55 0 0 0 16.393 0H1.607C1.165 0 .787.157.472.47.157.784 0 1.16 0 1.6v10.886c0 .44.157.817.472 1.13.315.314.693.471 1.135.471h14.786c.442 0 .82-.157 1.135-.47.315-.314.472-.69.472-1.13V1.6c0-.44-.157-.817-.472-1.13z" mask="url(#b)"/>
    </g>
</svg>
