<svg xmlns="http://www.w3.org/2000/svg" xmlns:xlink="http://www.w3.org/1999/xlink" width="83" height="142" viewBox="0 0 83 142">
    <defs>
        <path id="a" d="M.21.075h10.598V13.44H.21z"/>
    </defs>
    <g fill="none" fill-rule="evenodd">
        <path fill="#FEFEFE" d="M5.69 84.96l30.62 19.915V52.04L5.69 33.125V84.96zm30.05 26.437L2.024 90.568C.775 89.798 0 88.382 0 86.875V30.298c0-1.543 0-5.245 2.095-5.737 2.094-.492 2.888 1.254 4.165 2.042L39.976 47.43c1.249.771 2.024 2.187 2.024 3.694v56.577c0 1.543-.803 2.975-2.095 3.737a4.03 4.03 0 0 1-2.047.561 4.03 4.03 0 0 1-2.118-.603z"/>
        <path fill="#FEFEFE" d="M7.731 27.44l33.875 20.916 33.875-20.915L41.606 6.526 7.731 27.44zm31.615 26.577L2.361 31.181a4.363 4.363 0 0 1-2.076-3.74c0-1.54.776-2.938 2.076-3.74L39.346.864a4.277 4.277 0 0 1 4.52 0L80.851 23.7c1.3.803 2.076 2.201 2.076 3.74 0 1.54-.776 2.939-2.076 3.741L43.866 54.017c-.697.43-3.21 2.33-3.992 2.33s.17-1.9-.528-2.33z"/>
        <path fill="#FEFEFE" d="M37.284 81.424c-1.45-.87-.216-1.492.668-2.921a3.07 3.07 0 0 1 2.156-1.417 391.796 391.796 0 0 0 4.952-3.016l24.9-14.983-17.434-10.714a3.004 3.004 0 0 1-1.022-4.165c.885-1.427 2.778-1.878 4.227-1.006L76.04 55.645A3.994 3.994 0 0 1 78 59.088a3.992 3.992 0 0 1-1.961 3.442L48.112 79.337c-1.298.822-6.127 3.801-7.48 3.801-.548 0-2.793-1.38-3.348-1.714zM1 141v-13h8v2.75H3.766v2.75H8.37v2.641H3.784V141z"/>
        <g transform="translate(17 128)">
            <mask id="b" fill="#fff">
                <use xlink:href="#a"/>
            </mask>
            <path fill="#FEFEFE" d="M.21 8.426V.076h2.98v8.11c0 1.585.904 2.378 2.319 2.378 1.414 0 2.32-.793 2.32-2.378V.076h2.98v8.35c0 3.281-2.358 5.014-5.3 5.014-2.942 0-5.3-1.733-5.3-5.014" mask="url(#b)"/>
        </g>
        <path fill="#FEFEFE" d="M44.192 132.029c-.09-.581-.58-1.566-2.137-1.566-1.07 0-1.757.65-1.757 1.337 0 .598.38 1.038 1.267 1.196l1.722.317c2.445.44 3.713 1.97 3.713 3.747 0 1.953-1.684 3.94-4.746 3.94-3.55 0-5.072-2.234-5.254-3.993l2.627-.616c.109 1.144.906 2.146 2.663 2.146 1.123 0 1.812-.527 1.812-1.301 0-.634-.526-1.091-1.377-1.25l-1.758-.316c-2.173-.405-3.496-1.812-3.496-3.659 0-2.357 2.138-4.011 4.602-4.011 3.206 0 4.42 1.865 4.692 3.325l-2.573.704zM55 141v-13h7.982v2.732H57.81v2.476h4.693v2.548H57.81v2.494H63V141zM73.99 138c1.093 0 2.01.898 2.01 1.99 0 1.074-.917 2.01-2.01 2.01-1.093 0-1.99-.936-1.99-2.01 0-1.092.897-1.99 1.99-1.99"/>
    </g>
</svg>
