<svg xmlns="http://www.w3.org/2000/svg" width="325" height="17" viewBox="0 0 325 17">
    <defs>
        <linearGradient id="a" x1=".258%" x2="101.258%" y1="49.75%" y2="49.75%">
            <stop offset="0%" stop-color="#3023AE"/>
            <stop offset="47.525%" stop-color="#53A0FD"/>
            <stop offset="100%" stop-color="#B4EC51"/>
        </linearGradient>
    </defs>
    <path fill="url(#a)" fill-rule="evenodd" d="M264.962 10.306a1.135 1.135 0 0 1 .187-.745c2.226-3.32 4.343-5.048 6.663-5.438 3.144-.527 5.926 1.581 8.87 3.813.399.303.804.61 1.218.917 4.395 3.257 5.01 2.652 7.3.398 1.088-1.07 2.442-2.401 4.51-3.693 5.53-3.454 7.697-2.302 10.607.003 1 .792 2.032 1.61 3.49 2.252 5.333 2.345 6.628.49 9.205-3.209.904-1.299 1.929-2.771 3.28-4.238.424-.46 1.14-.49 1.601-.065.46.426.49 1.146.064 1.607-1.245 1.353-2.223 2.757-3.087 3.997-2.647 3.803-4.936 7.086-11.974 3.989-1.724-.759-2.925-1.71-3.984-2.55-2.283-1.806-3.428-2.714-8.003.143-1.857 1.16-3.112 2.394-4.12 3.386-2.817 2.772-4.552 4.021-10.237-.193-.42-.311-.832-.623-1.237-.93-2.656-2.013-4.948-3.75-7.128-3.385-.816.137-1.644.567-2.495 1.301-.02.244-.118.484-.297.678-1.246 1.353-2.224 2.758-3.087 3.997-2.648 3.803-4.936 7.086-11.974 3.99-1.724-.76-2.925-1.71-3.985-2.55-2.282-1.807-3.428-2.715-8.003.142-1.856 1.16-3.111 2.394-4.12 3.386-2.817 2.772-4.551 4.021-10.236-.192-.42-.312-.832-.624-1.237-.931-2.656-2.013-4.949-3.75-7.128-3.385-.817.137-1.644.567-2.495 1.301-.02.245-.118.484-.297.678-1.246 1.353-2.224 2.758-3.087 3.997-2.648 3.803-4.936 7.086-11.974 3.99-1.724-.76-2.925-1.71-3.985-2.55-2.282-1.807-3.428-2.715-8.003.143-1.857 1.16-3.111 2.394-4.12 3.386-2.817 2.77-4.552 4.02-10.236-.193-.42-.312-.832-.624-1.238-.93-2.655-2.013-4.948-3.75-7.128-3.386-.816.137-1.643.568-2.494 1.302-.02.244-.119.483-.297.677-1.246 1.353-2.224 2.758-3.087 3.998-2.648 3.802-4.936 7.085-11.974 3.988-1.725-.758-2.925-1.71-3.985-2.549-2.282-1.807-3.428-2.715-8.003.143-1.857 1.16-3.112 2.394-4.12 3.386-2.817 2.771-4.552 4.02-10.237-.193-.42-.311-.832-.624-1.237-.93-2.655-2.013-4.948-3.75-7.128-3.386-.816.137-1.644.568-2.495 1.302-.02.244-.118.484-.297.677-1.245 1.353-2.223 2.758-3.087 3.998-2.647 3.802-4.936 7.086-11.974 3.989-1.724-.76-2.925-1.71-3.984-2.55-2.283-1.806-3.428-2.714-8.003.143-1.857 1.16-3.112 2.394-4.12 3.386-2.817 2.771-4.552 4.021-10.237-.193-.42-.311-.832-.624-1.237-.93-2.656-2.013-4.948-3.75-7.128-3.386-1.64.276-3.327 1.736-5.155 4.464-.224.334-.594.511-.968.503-.467.626-.893 1.24-1.295 1.816-2.648 3.803-4.936 7.086-11.974 3.989-1.724-.759-2.925-1.71-3.985-2.549-2.282-1.807-3.428-2.715-8.003.142-1.857 1.16-3.112 2.394-4.12 3.386-2.817 2.772-4.552 4.021-10.236-.192-.42-.312-.832-.624-1.238-.931-2.655-2.013-4.948-3.75-7.128-3.385-1.64.275-3.326 1.736-5.155 4.464a1.133 1.133 0 0 1-1.574.309A1.139 1.139 0 0 1 .8 42.548c2.226-3.32 4.343-5.048 6.663-5.438 3.143-.527 5.925 1.581 8.87 3.813.398.303.804.61 1.217.917 4.395 3.257 5.011 2.652 7.301.398 1.087-1.07 2.44-2.401 4.51-3.693 5.529-3.454 7.696-2.302 10.607.004 1 .791 2.032 1.61 3.49 2.25 5.332 2.346 6.627.491 9.204-3.208.904-1.299 1.93-2.771 3.28-4.238a1.13 1.13 0 0 1 .715-.36c1.608-1.83 3.203-2.839 4.907-3.125 3.144-.528 5.926 1.58 8.87 3.813.399.302.804.61 1.218.917 4.395 3.257 5.01 2.651 7.3.398 1.088-1.07 2.442-2.401 4.51-3.693 5.53-3.454 7.697-2.302 10.607.003 1 .792 2.032 1.61 3.49 2.251 5.333 2.345 6.628.491 9.205-3.208.166-.24.337-.484.512-.734a1.135 1.135 0 0 1 .187-.746c2.226-3.32 4.344-5.048 6.664-5.437 3.143-.528 5.925 1.58 8.87 3.813.398.302.804.61 1.217.916 4.395 3.258 5.01 2.652 7.3.399 1.088-1.07 2.442-2.402 4.51-3.694 5.53-3.453 7.697-2.301 10.608.004 1 .791 2.032 1.61 3.49 2.251 5.332 2.345 6.627.49 9.204-3.208.166-.24.337-.485.513-.734a1.135 1.135 0 0 1 .187-.746c2.226-3.32 4.343-5.048 6.663-5.438 3.143-.527 5.925 1.582 8.87 3.814.398.302.804.61 1.217.916 4.395 3.258 5.011 2.652 7.301.398 1.087-1.07 2.441-2.4 4.51-3.693 5.53-3.454 7.696-2.302 10.607.004 1 .791 2.032 1.61 3.49 2.251 5.332 2.345 6.627.49 9.204-3.209.166-.239.337-.484.513-.733a1.135 1.135 0 0 1 .187-.746c2.226-3.32 4.343-5.048 6.663-5.438 3.143-.527 5.925 1.581 8.87 3.814.399.302.804.61 1.218.916 4.395 3.257 5.01 2.652 7.3.398 1.088-1.07 2.441-2.401 4.51-3.693 5.53-3.454 7.696-2.302 10.607.004 1 .791 2.032 1.61 3.49 2.25 5.333 2.346 6.627.491 9.204-3.208.167-.239.337-.484.513-.734z" transform="rotate(6 307.255 21.33)"/>
</svg>
