<svg xmlns="http://www.w3.org/2000/svg" width="555" height="19" viewBox="0 0 555 19">
    <defs>
        <linearGradient id="a" x1="0%" x2="102%" y1="0%" y2="101%">
            <stop offset="0%" stop-color="#3023AE"/>
            <stop offset="100%" stop-color="#C86DD7"/>
        </linearGradient>
    </defs>
    <path fill="url(#a)" fill-rule="evenodd" d="M550.008 15.538c-.347.1-.745.215-.332.882-1.853-.904-1.537.72-2.23 1.138l-.695-.77-2.266.199c-.02-.19-.088-.435-.284-.567-.923.08-1.53.65-2.223.949l1.158.73c-.465-.316-.464-.079-.695-.058v-.12c-6.695-3.268-7.037-.592-7.643-.867l.23-.26c-4.162.962-6.432-.232-11.294.316l1.514 1.192c-1.155.459-14.225 1.192-15.41.216-6.46-1.334-13.01.876-18.642-.725-12.11-1.369-23.447.463-35.657.283l.122-.106c-2.092-.354-4.786-1.213-6.494-.345a.245.245 0 0 0-.024-.272l-1.516.19.123-.11c-3.218-.122-6.621-.134-9.835 1.066-.749-.686-3.65-.305-4.603-.953-9.892-1.237-21.211.07-32.205.288-.293-.172-.212-.78-1.394-.721l-.086.981c-4.193-1.423-9.184.87-13.075-1.123l-1.415 1.14-19.804.543-.549-.109c-3.723.413-12.959.786-13.946-.027-6.46-1.334-13.01.876-18.642-.725-12.11-1.369-23.447.463-35.657.283l.122-.106c-2.092-.354-4.786-1.213-6.494-.345a.245.245 0 0 0-.024-.272l-1.516.19.123-.11c-3.218-.122-6.621-.134-9.835 1.066-.749-.686-3.65-.305-4.603-.953-9.892-1.237-21.211.07-32.205.288-.293-.172-.212-.78-1.394-.721l-.086.981c-4.193-1.423-9.184.87-13.075-1.123l-1.415 1.14-19.804.543-6.283-1.24 1.086.686c-.465-.317-.464-.08-.695-.06v-.118a26.078 26.078 0 0 0-1.718-.77l-.528-.103-10.196.89-.788-.86c-1.57-.106-3.252-.22-5.477.03l1.514 1.193c-1.155.459-14.225 1.192-15.41.216-6.46-1.334-13.01.876-18.642-.725-12.11-1.369-23.447.463-35.657.283l.122-.106c-2.092-.354-4.786-1.213-6.494-.345a.245.245 0 0 0-.024-.272l-1.516.19.123-.11c-3.218-.122-6.621-.134-9.835 1.066-.749-.686-3.65-.305-4.603-.953-9.892-1.237-21.211.07-32.205.288-.293-.172-.212-.78-1.394-.721l-.086.981c-4.193-1.423-9.184.87-13.075-1.123l-1.415 1.14-19.804.543-8.138-1.605L5 17.939l-3.763-4.104L0 8.783 4.34 4.19c-.072.102-.112.213-.112.213 2.057.931 3.869-.723 5.773.115 0-.082.012-.177.046-.297l-.04.3c.068.03.135.063.203.1l.017-.128c.046 1.513 3.736-1.148 4.264.195 1.547.621 2.595-.825 3.709-1.02-.447-.071.5 1.323 1.542.621.37-.064 1.498-1.747 2.449-1.098.95.65 2.509.156 3.763.234l-.217-.408c4.94.547 10.51-.66 14.779.525-.898 1.347 1.258-1.551.281.033l1.636.15a.448.448 0 0 0 .065-.23c.937-.42 1.91-2.336 3.053-.76.059 1.253 1.553-.495.951.65 4.529-2.13 6.709 1.204 11.531-1.128l-.297.202 1.11.177-.359-1.051c.655.85 2.52-.59 2.434.391l-.15.101c-.084.98 1.102.55 1.688.894-.044-.49-.186-.637-.28-.675.117-.027.38-.135.884-.473 2.052 1.201 4.287-.305 5.75.925l.603-.773c2.2 1.1 5.257-1.516 7.302.43 3.4-.447 5.552-.972 8.879-1.555 1.702.148 4.29-.304 5.234 1.09 2.652.8 3.831-.78 6.013-.655-.369 1.644 1.472.288 2.098 1.083-.109-1.457 1.371.154 1.7-1.014l.046.849 3.32.256-.25.212c-.056.716.583-.054 1.021.236l.657-1.009-.2 1.06c.341.23.443-.016.639-.17-.05.087-.067.217-.077.353.77.45 1.618-.056 1.697-1.01.333.158.172.74.524.662.479-.187.161-.583-.045-.85.667.318.73.928 1.913.58l-.5.425c.726-.4 1.085.844 2.1-.243l.118-1.432-.974.612 1.614-1.382c.333.158.087.37.166.741.98-.612.98.712 1.538-.428l.15.98.765-.875c-.164.581-.599 1.616.525 1.984l1.02.234-.253-1.11c.542.42.771 1.77 1.558.657l.044.848c.893.342.35-1.404 1.099-.72l-.29.691c2.2-.111 3.748-1.493 5.626-.438l-.025.338c.665.317 1.83.108 2.184.027l-.207-.164 1.51-.189.067.608 1.057-.24-.038.476c.994.474 1.927.238 2.782-.267l-.312-.295c.262-.06.532-1.566.765-2.512a.81.81 0 0 0 .115-.004l.06-.142a2.784 2.784 0 0 0-.044.14c.634-.081.33-.972 1.337-.419-.266.452-.394.559-.209 1.06 1.206-.585.71-.16 1.62-1.38-.662 1.008-.18 2.144.818 2.618 2.077-.004 2.322-1.34 3.756-.576l.795 1.332c.79.211.846-1.627 1.367-.967 1.624.534.192-.708 1.61-.299a.425.425 0 0 1-.008-.076 1.461 1.461 0 0 0 .14.112c.712.533 1.096.003 1.723.074l.98-.41c.223-1.3.91.102 1.368.154l.31-.928c1.408.998 3.658 1.494 5.828 1.624.2.64.915.415 1.632.182l-.313-.396c3.615.893 3.637.855 7.103.767l.641-.772c-.62.533.234 1.352.568 1.509.687.079 1.867-.27 2.906-.272l-.032.36c-1.75.04-4.313.34-5.675.293v.788l1.39.59.462-.99c1.851 1.025 2.758.312 3.917.447.813.032 1.415-.295 1.56-.774l-1.7.154.057-.424c.935-.013 1.665.013 1.943.129-.003.028-.02.053-.035.078.795.542 1.272.846 2.342 1.3l-1.158-.017 1.164.967c.925.512.225-1.922 2.545-.225l.694.888c.231-.85 2.317.39 3.474 1L175.575 5.7c1.37.131 2.95.665 4.081.217 0 .12-.23.377.237.692l.695-.416.46.433c.693-.536.324-1.478.553-2.448v.238c.175-1.1 3.16.638 4.68.895l.355-.374c-.036-.084-.022-.137.085-.09l.086-.091c-.156-.128-.375-.25-.514-.378.274.023.44.11.64.243l.408-.43c-.073.102-.113.213-.113.213 2.057.931 3.869-.723 5.773.115 0-.082.012-.177.046-.297l-.04.3c.068.03.135.063.203.1l.017-.128c.046 1.513 3.736-1.148 4.264.195 1.547.621 2.595-.825 3.709-1.02-.447-.071.5 1.323 1.542.621.37-.064 1.498-1.747 2.449-1.098.95.65 2.509.156 3.763.234l-.217-.408c4.94.547 10.51-.66 14.779.525-.898 1.347 1.258-1.551.281.033l1.636.15a.448.448 0 0 0 .065-.23c.937-.42 1.91-2.336 3.053-.76.059 1.253 1.553-.495.951.65 4.529-2.13 6.709 1.204 11.531-1.128l-.297.202 1.11.177-.359-1.051c.655.85 2.52-.59 2.434.391l-.15.101c-.084.98 1.102.55 1.688.894-.044-.49-.186-.637-.28-.675.117-.027.38-.135.884-.473 2.052 1.201 4.287-.305 5.75.925l.603-.773c2.2 1.1 5.257-1.516 7.302.43 3.4-.447 5.552-.972 8.879-1.555 1.702.148 4.29-.304 5.234 1.09 2.652.8 3.831-.78 6.013-.655-.369 1.644 1.472.288 2.098 1.083-.109-1.457 1.371.154 1.7-1.014l.046.849 3.32.256-.25.212c-.056.716.583-.054 1.021.236l.657-1.009-.2 1.06c.341.23.443-.016.639-.17-.05.087-.067.217-.077.353.77.45 1.618-.056 1.697-1.01.333.158.172.74.524.662.479-.187.161-.583-.045-.85.667.318.73.928 1.913.58l-.5.425c.726-.4 1.085.844 2.1-.243l.118-1.432-.974.612 1.614-1.382c.333.158.087.37.166.741.98-.612.98.712 1.538-.428l.15.98.765-.875c-.164.581-.599 1.616.525 1.984l1.02.234-.253-1.11c.542.42.771 1.77 1.558.657l.044.848c.893.342.35-1.404 1.099-.72l-.29.691c2.2-.111 3.748-1.493 5.626-.438l-.025.338c.665.317 1.83.108 2.184.027l-.207-.164 1.51-.189.067.608 1.057-.24-.038.476c.994.474 1.927.238 2.782-.267l-.312-.295c.262-.06.532-1.566.765-2.512a.81.81 0 0 0 .115-.004l.06-.142a2.784 2.784 0 0 0-.044.14c.634-.081.33-.972 1.337-.419-.266.452-.394.559-.209 1.06 1.206-.585.71-.16 1.62-1.38-.662 1.008-.18 2.144.818 2.618 2.077-.004 2.322-1.34 3.756-.576l.795 1.332c.79.211.846-1.627 1.367-.967 1.624.534.192-.708 1.61-.299a.425.425 0 0 1-.008-.076 1.461 1.461 0 0 0 .14.112c.712.533 1.096.003 1.723.074l.98-.41c.223-1.3.91.102 1.368.154l.31-.928c1.408.998 3.658 1.494 5.828 1.624.2.64.915.415 1.632.182l-.313-.396c3.615.893 3.637.855 7.103.767l.641-.772c-.62.533.234 1.352.568 1.509.687.079 1.867-.27 2.906-.272l-.032.36c-.816.019-1.81.094-2.775.164-.029.057-.044.099-.044.099.973.44 1.89.302 2.789.123l.04-.302c.669-.01 1.232.002 1.601.05.445-.013.891.045 1.343.244 0-.082.012-.177.046-.297l-.04.3c.068.03.135.063.203.1l.017-.128c.046 1.513 3.736-1.148 4.264.195 1.547.621 2.595-.825 3.709-1.02-.447-.071.5 1.323 1.542.621.37-.064 1.498-1.747 2.449-1.098.95.65 2.509.156 3.763.234l-.217-.408c4.94.547 10.51-.66 14.779.525-.898 1.347 1.258-1.551.281.033l1.636.15a.448.448 0 0 0 .065-.23c.937-.42 1.91-2.336 3.053-.76.059 1.253 1.553-.495.951.65 4.529-2.13 6.709 1.204 11.531-1.128l-.297.202 1.11.177-.359-1.051c.655.85 2.52-.59 2.434.391l-.15.101c-.084.98 1.102.55 1.688.894-.044-.49-.186-.637-.28-.675.117-.027.38-.135.884-.473 2.052 1.201 4.287-.305 5.75.925l.603-.773c2.2 1.1 5.257-1.516 7.302.43 3.4-.447 5.552-.972 8.879-1.555 1.702.148 4.29-.304 5.234 1.09 2.652.8 3.831-.78 6.013-.655-.369 1.644 1.472.288 2.098 1.083-.109-1.457 1.371.154 1.7-1.014l.046.849 3.32.256-.25.212c-.056.716.583-.054 1.021.236l.657-1.009-.2 1.06c.341.23.443-.016.639-.17-.05.087-.067.217-.077.353.77.45 1.618-.056 1.697-1.01.333.158.172.74.524.662.479-.187.161-.583-.045-.85.667.318.73.928 1.913.58l-.5.425c.726-.4 1.085.844 2.1-.243l.118-1.432-.974.612 1.614-1.382c.333.158.087.37.166.741.98-.612.98.712 1.538-.428l.15.98.765-.875c-.164.581-.599 1.616.525 1.984l1.02.234-.253-1.11c.542.42.771 1.77 1.558.657l.044.848c.893.342.35-1.404 1.099-.72l-.29.691c2.2-.111 3.748-1.493 5.626-.438l-.025.338c.665.317 1.83.108 2.184.027l-.207-.164 1.51-.189.067.608 1.057-.24-.038.476c.994.474 1.927.238 2.782-.267l-.312-.295c.262-.06.532-1.566.765-2.512a.81.81 0 0 0 .115-.004l.06-.142a2.784 2.784 0 0 0-.044.14c.634-.081.33-.972 1.337-.419-.266.452-.394.559-.209 1.06 1.206-.585.71-.16 1.62-1.38-.662 1.008-.18 2.144.818 2.618 2.077-.004 2.322-1.34 3.756-.576l.795 1.332c.79.211.846-1.627 1.367-.967 1.624.534.192-.708 1.61-.299a.425.425 0 0 1-.008-.076 1.461 1.461 0 0 0 .14.112c.712.533 1.096.003 1.723.074l.98-.41c.223-1.3.91.102 1.368.154l.31-.928c1.408.998 3.658 1.494 5.828 1.624.2.64.915.415 1.632.182l-.313-.396c3.615.893 3.637.855 7.103.767l.641-.772c-.62.533.234 1.352.568 1.509.687.079 1.867-.27 2.906-.272l-.032.36c-1.75.04-4.313.34-5.675.293v.788l1.39.59.462-.99c1.851 1.025 2.758.312 3.917.447.813.032 1.415-.295 1.56-.774l-1.7.154.057-.424c.935-.013 1.665.013 1.943.129-.003.028-.02.053-.035.078.795.542 1.272.846 2.342 1.3l-1.158-.017 1.164.967c.925.512.225-1.922 2.545-.225l.694.888c.231-.85 2.317.39 3.474 1L517.575 5.7c1.37.131 2.95.665 4.081.217 0 .12-.23.377.237.692l.695-.416.46.433c.693-.536.324-1.478.553-2.448v.238c.208-1.303 4.356 1.376 5.346.86-.266-.117-.604-.77.045-.246-.004-.24-.465-.436-.7-.652.696.058.7.534 2.32 1.101.37-1.186 2.264-.095 3.465.005.029.045.069.095.108.146.082.003.197.016.354.042a.55.55 0 0 1-.259.095c.099.17.09.332-.424.377l1.39.827c.464-.04-.93-1.105.23-.733.928.513.003 1.19 1.853 1.38 1.161.376 2.314-.56 3.244.19.924.038 4.868 2.897 5.558 1.765l.005.594c.292.051.962.163 1.35.06l-.047.073c.252.043.295-.077.284-.229.05-.071.075-.158.032-.283l-.06.094c-.012-.07-.026-.14-.026-.197.465.197.465.91 1.395 1.184l.103-.28c.306.379 1.448.823-.103.517 1.16 1.206 5.472 3.58 5.472 3.58-.513.578-2.589.895-3.692 1.025-.17-.193-.382-.401-.476-.54.091.228-.11.294-.341.361.065-.005.244-.022.48-.05.174.196.285.372-.008.349-.167-.07-.328-.221-.49-.293zM346.23 4.308c-1.09.08-2.14.151-2.858.126v.788l1.39.59.462-.99c.12.067.237.127.35.18l.656-.694zM62.062 2.12c-.065-.026-.097.022 0 0zM143 2.18c.055-.131.045-.047.049.038l-.05-.038zm-36.863.637c-.07-.008-.11.023-.137.07a.335.335 0 0 1 .137-.07zm-64.086.8L42 3.519c.029.036.058.056.086.084l-.035.013zm.076-.801c.088.162.463.129.465.346-.2.088-.396.073-.592-.118.078-.029.305-.125.127-.228zM4 4.31l.08-.088A.339.339 0 0 0 4 4.31zm103.12 13.283c-.04.02-.084.03-.12.051.063.007.097-.018.12-.051zM132.002.134l.058-.134a.724.724 0 0 0-.058.134zm43.169 5.2l-.17-.408.23.417-.06-.008zm69.892-3.215c-.065-.026-.097.022 0 0zM326 2.18c.055-.131.045-.047.049.038l-.05-.038zm-36.863.637c-.07-.008-.11.023-.137.07a.335.335 0 0 1 .137-.07zm-64.086.8L225 3.519c.029.036.058.056.086.084a.485.485 0 0 1-.035.013zm.076-.801c.088.162.463.129.465.346-.2.088-.396.073-.592-.118.078-.029.305-.125.127-.228zM187 4.31l.08-.088a.339.339 0 0 0-.08.088zm103.12 13.283c-.04.02-.084.03-.12.051.063.007.097-.018.12-.051zM315.002.134l.058-.134a.724.724 0 0 0-.058.134zm89.06 1.985c-.064-.026-.096.022 0 0zm80.94.06c.055-.131.045-.047.049.038l-.05-.038zm-36.863.637c-.07-.008-.11.023-.137.07a.335.335 0 0 1 .137-.07zm-64.086.8L384 3.519c.029.036.058.056.086.084l-.035.013zm.076-.801c.088.162.463.129.465.346-.2.088-.396.073-.592-.118.078-.029.305-.125.127-.228zm64.994 14.778c-.04.02-.085.03-.121.051.063.007.097-.018.12-.051zM474 .134l.058-.134a.724.724 0 0 0-.058.134zm73.17 9.852a.292.292 0 0 1-.17.11l.15-.244a.833.833 0 0 1 .02.134zm-3.134 6.903l-.036.004c0 .295.055.183.036-.004zM517.17 5.335l-.17-.409.23.417-.06-.008zm31.88 5.46l.091-.24c-.172.06-.165.146-.09.24z" opacity=".72"/>
</svg>
